<svg width="393" height="155" viewBox="0 0 393 155" fill="none" xmlns="http://www.w3.org/2000/svg">
<path d="M420.744 3.62249L402.28 130.587C351.589 159.277 298.715 141.975 232.966 111.888C182.157 88.6347 134.307 69.8366 87.3045 60.3364C57.0684 54.2205 14.9979 53.8645 -15.1029 56.739L13.1546 -55.6531L420.744 3.62249Z" fill="url(#paint0_linear_101_7203)"/>
<path d="M418.401 -8.98799L403.158 93.3126C357.383 129.548 291.435 118.236 237.554 65.2821C225.81 53.7433 212.976 43.3818 199.329 34.2853C146.411 -1.00312 81.2851 -17.2592 20.5091 -9.20396L29.1191 -66.9902L418.401 -8.98799Z" fill="url(#paint1_linear_101_7203)"/>
<path d="M418.342 -8.99776C418.342 -8.99776 355.195 95.0017 246.748 78.8433C161.482 66.1389 127.923 8.05951 18.0188 7.1056L29.0604 -67L418.342 -8.99776Z" fill="url(#paint2_linear_101_7203)"/>
<defs>
<linearGradient id="paint0_linear_101_7203" x1="214.162" y1="19.543" x2="190.392" y2="95.1239" gradientUnits="userSpaceOnUse">
<stop stop-color="#0C2A63"/>
<stop offset="0.9988" stop-color="#103E97"/>
</linearGradient>
<linearGradient id="paint1_linear_101_7203" x1="269.427" y1="52.3617" x2="338.295" y2="137.06" gradientUnits="userSpaceOnUse">
<stop stop-color="#0C2A63"/>
<stop offset="0.9988" stop-color="#103E97"/>
</linearGradient>
<linearGradient id="paint2_linear_101_7203" x1="98.9148" y1="-135.775" x2="262.371" y2="49.0103" gradientUnits="userSpaceOnUse">
<stop stop-color="#0C2A63"/>
<stop offset="0.9988" stop-color="#103E97"/>
</linearGradient>
</defs>
</svg>
